<?xml version="1.0" encoding="UTF-8" standalone="no"?>
<!-- Created with Inkscape (http://www.inkscape.org/) -->

<svg
   width="80mm"
   height="50mm"
   viewBox="0 0 80 50"
   version="1.1"
   id="svg1"
   inkscape:version="1.3 (0e150ed6c4, 2023-07-21)"
   sodipodi:docname="compuLogo.svg"
   xmlns:inkscape="http://www.inkscape.org/namespaces/inkscape"
   xmlns:sodipodi="http://sodipodi.sourceforge.net/DTD/sodipodi-0.dtd"
   xmlns="http://www.w3.org/2000/svg"
   xmlns:svg="http://www.w3.org/2000/svg">
  <sodipodi:namedview
     id="namedview1"
     pagecolor="#000000"
     bordercolor="#999999"
     borderopacity="1"
     inkscape:showpageshadow="2"
     inkscape:pageopacity="0"
     inkscape:pagecheckerboard="0"
     inkscape:deskcolor="#d1d1d1"
     inkscape:document-units="mm"
     inkscape:zoom="2.0686841"
     inkscape:cx="240.24934"
     inkscape:cy="58.732988"
     inkscape:window-width="1920"
     inkscape:window-height="1017"
     inkscape:window-x="-8"
     inkscape:window-y="-8"
     inkscape:window-maximized="1"
     inkscape:current-layer="layer1" />
  <defs
     id="defs1" />
  <g
     inkscape:label="Layer 1"
     inkscape:groupmode="layer"
     id="layer1">
    <path
       style="display:inline;fill:#ececec;stroke:none;stroke-width:0.0649998;stroke-linecap:round;stroke-linejoin:round;stroke-dasharray:none"
       d="M 58.63788,48.25456 C 57.925209,48.036518 57.330511,47.48659 57.164802,46.892377 57.024087,46.387784 57.029556,4.1480876 57.170401,3.6428674 57.230724,3.4264784 57.4314,3.1171556 57.65758,2.8919259 58.372509,2.1799949 57.933896,2.208588 67.708278,2.236725 l 8.63986,0.024871 0.449875,0.2305737 c 0.24743,0.1268155 0.579122,0.3895923 0.73709,0.5839485 l 0.287214,0.3533751 V 25.27772 47.125946 l -0.287214,0.353374 c -0.157968,0.194359 -0.489665,0.457135 -0.737103,0.583949 l -0.449889,0.230574 -8.739254,0.01581 c -4.806587,0.0087 -8.843527,-0.01611 -8.97098,-0.05509 z M 68.959941,37.016422 c 1.084538,-0.531678 1.697331,-1.526067 1.697331,-2.754293 0,-1.038999 -0.407432,-1.867097 -1.205741,-2.450652 -0.595837,-0.435551 -1.122584,-0.608419 -1.891411,-0.620722 -1.591602,-0.02548 -2.844414,0.949772 -3.159966,2.459855 -0.533014,2.550785 2.162953,4.540819 4.559787,3.365812 z M 64.363083,15.343677 c 0.06827,-0.08192 0.09778,-0.410267 0.08066,-0.897629 l -0.02699,-0.768455 h -1.617914 -1.617915 l -0.02699,0.768455 c -0.01712,0.487362 0.01239,0.815706 0.08066,0.897629 0.08405,0.100853 0.427006,0.129174 1.564252,0.129174 1.137246,0 1.4802,-0.02832 1.564253,-0.129174 z m 9.720998,0.03387 c 0.15509,-0.08265 0.178827,-0.198321 0.178827,-0.871374 0,-0.673053 -0.02375,-0.78872 -0.178827,-0.871374 -0.100463,-0.05354 -0.786303,-0.0953 -1.565083,-0.0953 -1.68423,0 -1.677449,-0.0038 -1.675407,0.950237 0.0014,0.687708 0.04373,0.827988 0.275941,0.916012 0.249372,0.09453 2.779422,0.07046 2.964549,-0.0282 z m 1.637491,-3.270271 c 0.192714,-0.134415 0.205477,-0.211209 0.205477,-1.236295 0,-0.870863 -0.02952,-1.1223779 -0.145282,-1.2376502 -0.129858,-0.1293127 -1.002766,-0.1446729 -8.221647,-0.1446729 -7.218877,0 -8.091788,0.01536 -8.221646,0.1446729 -0.115758,0.1152723 -0.14528,0.3667872 -0.14528,1.2376502 0,1.025086 0.01277,1.10188 0.205474,1.236295 0.182108,0.127018 1.110304,0.143317 8.161452,0.143317 7.051151,0 7.979347,-0.0163 8.161452,-0.143317 z m 0.09453,-4.294192 c 0.15337,-0.152727 0.15337,-2.2961883 0,-2.4489153 -0.160792,-0.1601188 -16.351177,-0.1601188 -16.511971,0 -0.15337,0.152727 -0.15337,2.2961883 0,2.4489153 0.160794,0.1601188 16.351179,0.1601188 16.511971,0 z"
       id="path10" />
    <rect
       style="font-variation-settings:normal;display:inline;opacity:1;fill:none;fill-opacity:1;fill-rule:evenodd;stroke:#ececec;stroke-width:1.665;stroke-linecap:butt;stroke-linejoin:miter;stroke-miterlimit:4;stroke-dasharray:none;stroke-dashoffset:0;stroke-opacity:1;stop-color:#000000;stop-opacity:1"
       id="rect1"
       width="50.826427"
       height="35.451885"
       x="2.8940315"
       y="2.9844701"
       rx="2.3514016"
       ry="1.9896466" />
    <path
       style="display:inline;fill:none;stroke:#ececec;stroke-width:2.165;stroke-linejoin:round;stroke-dasharray:none"
       d="M 2.9844701,36.975878 H 53.358708"
       id="path1" />
    <path
       style="fill:none;stroke:#ececec;stroke-width:0.765003;stroke-linecap:round;stroke-linejoin:round;stroke-dasharray:none"
       d="M 6.4211326,13.656212 V 6.6924483 h 6.6924484"
       id="path2" />
    <path
       style="fill:#ececec;stroke:none;stroke-width:0.264583px;stroke-linecap:butt;stroke-linejoin:miter;stroke-opacity:1"
       d="m 18.811206,48.113275 h 17.454627 c -0.436271,-3.074908 -3.627569,-6.021917 -5.649191,-8.904976 l -6.017373,-0.04843 c -1.929354,2.98447 -5.579372,6.055003 -5.788063,8.953409 z"
       id="path3"
       sodipodi:nodetypes="ccccc" />
    <rect
       style="font-variation-settings:normal;display:none;opacity:1;vector-effect:none;fill:none;fill-opacity:1;fill-rule:evenodd;stroke:#ececec;stroke-width:0.264583;stroke-linecap:butt;stroke-linejoin:miter;stroke-miterlimit:4;stroke-dasharray:none;stroke-dashoffset:0;stroke-opacity:1;-inkscape-stroke:none;stop-color:#000000;stop-opacity:1"
       id="rect3"
       width="20.719694"
       height="45.660069"
       x="56.915207"
       y="2.0463893"
       rx="2.3514016"
       ry="1.9896467" />
    <ellipse
       style="display:none;fill:none;fill-rule:evenodd;stroke:#ececec;stroke-width:0.264583"
       id="path4"
       cx="67.275055"
       cy="33.701477"
       rx="2.9416847"
       ry="2.8777351" />
    <rect
       style="font-variation-settings:normal;display:none;opacity:1;vector-effect:none;fill:none;fill-opacity:1;fill-rule:evenodd;stroke:#ececec;stroke-width:0.264583;stroke-linecap:butt;stroke-linejoin:miter;stroke-miterlimit:4;stroke-dasharray:none;stroke-dashoffset:0;stroke-opacity:1;-inkscape-stroke:none;stop-color:#000000;stop-opacity:1"
       id="rect5"
       width="16.008261"
       height="2.3549371"
       x="59.325779"
       y="5.3350329"
       rx="0.31502882"
       ry="0.30017385" />
    <rect
       style="font-variation-settings:normal;display:none;vector-effect:none;fill:none;fill-opacity:1;fill-rule:evenodd;stroke:#ececec;stroke-width:0.264583;stroke-linecap:butt;stroke-linejoin:miter;stroke-miterlimit:4;stroke-dasharray:none;stroke-dashoffset:0;stroke-opacity:1;-inkscape-stroke:none;stop-color:#000000"
       id="rect5-1"
       width="16.008261"
       height="2.3549371"
       x="59.322269"
       y="9.5181913"
       rx="0.31502882"
       ry="0.30017385" />
    <rect
       style="font-variation-settings:normal;display:none;opacity:1;fill:none;fill-opacity:1;fill-rule:evenodd;stroke:#ececec;stroke-width:0.065;stroke-linecap:butt;stroke-linejoin:miter;stroke-miterlimit:4;stroke-dasharray:none;stroke-dashoffset:0;stroke-opacity:1;stop-color:#000000;stop-opacity:1"
       id="rect6"
       width="3.1655087"
       height="1.6807563"
       x="70.64682"
       y="13.447"
       rx="0.31502882"
       ry="0.30017382" />
    <rect
       style="font-variation-settings:normal;display:none;fill:none;fill-opacity:1;fill-rule:evenodd;stroke:#ececec;stroke-width:0.065;stroke-linecap:butt;stroke-linejoin:miter;stroke-miterlimit:4;stroke-dasharray:none;stroke-dashoffset:0;stroke-opacity:1;stop-color:#000000"
       id="rect6-4"
       width="3.1655087"
       height="1.6807563"
       x="61.080994"
       y="13.470806"
       rx="0.31502882"
       ry="0.30017382" />
  </g>
</svg>
